<svg width="17" height="14" viewBox="0 0 17 14" fill="none" xmlns="http://www.w3.org/2000/svg">
<path d="M15.9375 0H0.9375C0.68886 0 0.450403 0.0987719 0.274587 0.274587C0.0987721 0.450403 0 0.68886 0 0.9375V11.5625C0 11.9769 0.16462 12.3743 0.457646 12.6674C0.750671 12.9604 1.1481 13.125 1.5625 13.125H15.3125C15.7269 13.125 16.1243 12.9604 16.4174 12.6674C16.7104 12.3743 16.875 11.9769 16.875 11.5625V0.9375C16.875 0.68886 16.7762 0.450403 16.6004 0.274587C16.4246 0.0987719 16.1861 0 15.9375 0ZM8.4375 6.54063L3.34766 1.875H13.5273L8.4375 6.54063ZM5.68672 6.5625L1.875 10.0562V3.06875L5.68672 6.5625ZM7.07422 7.83437L7.80391 8.50391C7.97682 8.66246 8.2029 8.75042 8.4375 8.75042C8.6721 8.75042 8.89818 8.66246 9.07109 8.50391L9.80078 7.83437L13.5273 11.25H3.34766L7.07422 7.83437ZM11.1883 6.5625L15 3.06875V10.0562L11.1883 6.5625Z" fill="black" fill-opacity="0.4"/>
</svg>
