<svg width="25" height="10" viewBox="0 0 25 10" fill="none" xmlns="http://www.w3.org/2000/svg">
<path d="M11.4258 7.50329H10.5271V0.510202H12.9096C13.5134 0.510202 14.0283 0.711477 14.4496 1.11402C14.8802 1.51657 15.0955 2.00805 15.0955 2.58847C15.0955 3.18293 14.8802 3.67441 14.4496 4.07227C14.033 4.47014 13.5181 4.66673 12.9096 4.66673H11.4258V7.50329ZM11.4258 1.37147V3.81015H12.9284C13.2841 3.81015 13.5837 3.68845 13.8177 3.44973C14.0564 3.21101 14.1781 2.9208 14.1781 2.59315C14.1781 2.27017 14.0564 1.98465 13.8177 1.74593C13.5837 1.49785 13.2888 1.37615 12.9284 1.37615H11.4258V1.37147Z" fill="#3C4043"/>
<path d="M17.4452 2.56038C18.1099 2.56038 18.6341 2.73825 19.0179 3.09399C19.4017 3.44973 19.5937 3.93653 19.5937 4.5544V7.50329H18.7371V6.83861H18.6996C18.3299 7.38627 17.8337 7.65775 17.2158 7.65775C16.6869 7.65775 16.2469 7.50328 15.8912 7.18967C15.5354 6.87606 15.3576 6.48756 15.3576 6.01948C15.3576 5.52332 15.5448 5.13013 15.9193 4.83992C16.2937 4.54503 16.7946 4.39993 17.4171 4.39993C17.9507 4.39993 18.3907 4.49823 18.7324 4.69482V4.48886C18.7324 4.17525 18.6107 3.91313 18.3626 3.69313C18.1145 3.47313 17.8243 3.36548 17.492 3.36548C16.9912 3.36548 16.5933 3.57611 16.3031 4.00206L15.512 3.5059C15.9474 2.874 16.5933 2.56038 17.4452 2.56038ZM16.2844 6.03352C16.2844 6.26756 16.3827 6.46415 16.5839 6.61862C16.7805 6.77308 17.0146 6.85266 17.2814 6.85266C17.6605 6.85266 17.9975 6.71223 18.2924 6.43139C18.5873 6.15054 18.7371 5.82289 18.7371 5.44374C18.4562 5.22375 18.0677 5.11141 17.5669 5.11141C17.2018 5.11141 16.8975 5.20034 16.6541 5.37353C16.4061 5.55608 16.2844 5.77608 16.2844 6.03352Z" fill="#3C4043"/>
<path d="M24.4804 2.71489L21.4847 9.605H20.5579L21.672 7.1944L19.6967 2.71489H20.675L22.0979 6.15058H22.1166L23.5021 2.71489H24.4804Z" fill="#3C4043"/>
<path d="M7.85108 4.10036C7.85108 3.80735 7.82487 3.52697 7.77619 3.25735H4.00912V4.80201L6.17865 4.80248C6.09065 5.31643 5.80746 5.75455 5.37356 6.04663V7.04878H6.66498C7.41905 6.35088 7.85108 5.31924 7.85108 4.10036Z" fill="#4285F4"/>
<path d="M5.37401 6.04668C5.01453 6.28914 4.55161 6.43097 4.01004 6.43097C2.96389 6.43097 2.07642 5.72604 1.7586 4.77585H0.426456V5.80936C1.08644 7.11904 2.44293 8.01775 4.01004 8.01775C5.09317 8.01775 6.00311 7.66155 6.66543 7.04837L5.37401 6.04668Z" fill="#34A853"/>
<path d="M1.63311 4.00908C1.63311 3.74227 1.67758 3.48436 1.75856 3.2419V2.20838H0.426416C0.153528 2.74995 0 3.36126 0 4.00908C0 4.6569 0.153996 5.26821 0.426416 5.80977L1.75856 4.77626C1.67758 4.53379 1.63311 4.27588 1.63311 4.00908Z" fill="#FABB05"/>
<path d="M4.01004 1.58678C4.60122 1.58678 5.13061 1.7904 5.54861 2.18826L6.69305 1.04475C5.99796 0.397398 5.09176 0 4.01004 0C2.44339 0 1.0864 0.898701 0.426416 2.20838L1.75856 3.2419C2.07638 2.2917 2.96389 1.58678 4.01004 1.58678Z" fill="#E94235"/>
</svg>
