<svg width="23" height="10" viewBox="0 0 23 10" fill="none" xmlns="http://www.w3.org/2000/svg">
<path d="M4.27929 1.23862C4.54586 0.905189 4.72676 0.457492 4.67905 0C4.28882 0.0194039 3.81262 0.257448 3.53692 0.591138C3.28938 0.876892 3.07028 1.34333 3.1274 1.78165C3.56545 1.81965 4.0031 1.56269 4.27929 1.23862Z" fill="#000008"/>
<path d="M4.67409 1.86724C4.03793 1.82934 3.49704 2.22829 3.19324 2.22829C2.88928 2.22829 2.42407 1.88633 1.9209 1.89555C1.266 1.90517 0.658322 2.27545 0.325987 2.86439C-0.35757 4.04254 0.145597 5.79015 0.81032 6.74969C1.13312 7.2244 1.52216 7.7471 2.03477 7.72833C2.5191 7.70932 2.70894 7.41471 3.29767 7.41471C3.88597 7.41471 4.05697 7.72832 4.56966 7.71882C5.10134 7.70932 5.43374 7.24387 5.75654 6.7687C6.12685 6.22755 6.27845 5.70502 6.28798 5.67634C6.27845 5.66684 5.26276 5.27719 5.25334 4.10883C5.24375 3.13055 6.05077 2.66522 6.08875 2.63636C5.63302 1.96233 4.92095 1.88633 4.67409 1.86724Z" fill="#000008"/>
<path d="M10.2132 0.543285C11.5959 0.543285 12.5587 1.49638 12.5587 2.88401C12.5587 4.2766 11.5761 5.23464 10.1786 5.23464H8.64767V7.66919H7.54161V0.543283L10.2132 0.543285ZM8.64767 4.30622H9.91681C10.8798 4.30622 11.4279 3.78776 11.4279 2.88896C11.4279 1.99026 10.8798 1.47666 9.92176 1.47666H8.64767V4.30622Z" fill="#000008"/>
<path d="M12.8477 6.19267C12.8477 5.28397 13.544 4.72598 14.7786 4.65683L16.2008 4.57291V4.17295C16.2008 3.59515 15.8106 3.24948 15.1589 3.24948C14.5415 3.24948 14.1563 3.54571 14.0625 4.00997H13.0552C13.1144 3.07164 13.9143 2.3803 15.1983 2.3803C16.4576 2.3803 17.2624 3.04697 17.2624 4.08894V7.66918H16.2402V6.81486H16.2156C15.9144 7.39266 15.2576 7.75805 14.5761 7.75805C13.5588 7.75805 12.8477 7.12595 12.8477 6.19267ZM16.2008 5.72356V5.31369L14.9217 5.39265C14.2847 5.43714 13.9242 5.71861 13.9242 6.16305C13.9242 6.61731 14.2995 6.91364 14.8724 6.91364C15.618 6.91364 16.2008 6.40004 16.2008 5.72356Z" fill="#000008"/>
<path d="M18.2275 9.58031V8.71609C18.3064 8.73581 18.4841 8.73581 18.5731 8.73581C19.0669 8.73581 19.3336 8.52845 19.4965 7.99513C19.4965 7.98522 19.5904 7.67908 19.5904 7.67413L17.7139 2.47412H18.8693L20.183 6.70132H20.2027L21.5164 2.47412H22.6423L20.6965 7.94074C20.2522 9.20007 19.7386 9.60499 18.6621 9.60499C18.5731 9.60499 18.3064 9.59508 18.2275 9.58031Z" fill="#000008"/>
</svg>
