<svg width="30" height="8" viewBox="0 0 30 8" fill="none" xmlns="http://www.w3.org/2000/svg">
<path fill-rule="evenodd" clip-rule="evenodd" d="M3.5541 0.000836861H1.25043C1.09279 0.000836861 0.958719 0.115395 0.934137 0.270947L0.0024166 6.17755C-0.0161021 6.29413 0.0741697 6.39918 0.192406 6.39918H1.2922C1.44984 6.39918 1.58391 6.28462 1.60849 6.12876L1.85979 4.53568C1.88403 4.37966 2.01843 4.26526 2.17575 4.26526H2.90501C4.42251 4.26526 5.29826 3.53099 5.52709 2.076C5.63013 1.43946 5.53145 0.939288 5.23325 0.588907C4.9059 0.204392 4.32509 0.000836861 3.5541 0.000836861ZM3.81988 2.15814C3.69392 2.98468 3.06232 2.98468 2.45163 2.98468H2.104L2.34787 1.44101C2.36235 1.34781 2.44319 1.27907 2.53752 1.27907H2.69684C3.11284 1.27907 3.50531 1.27907 3.70811 1.51614C3.82892 1.65766 3.86602 1.86777 3.81988 2.15814ZM10.4403 2.13164H9.33714C9.24315 2.13164 9.16193 2.20038 9.14744 2.29374L9.09865 2.6022L9.02149 2.49044C8.78268 2.1438 8.25018 2.028 7.71863 2.028C6.49948 2.028 5.45835 2.95117 5.25554 4.24624C5.15017 4.89214 5.29997 5.50983 5.66645 5.94063C6.00268 6.33668 6.48373 6.50174 7.05598 6.50174C8.03818 6.50174 8.58299 5.87018 8.58299 5.87018L8.53373 6.17677C8.51518 6.29397 8.60544 6.39903 8.72297 6.39903H9.71672C9.87478 6.39903 10.0081 6.28447 10.033 6.1286L10.6292 2.35328C10.6481 2.23716 10.5582 2.13164 10.4403 2.13164ZM8.90255 4.2785C8.79608 4.90866 8.29586 5.33168 7.65799 5.33168C7.33765 5.33168 7.08154 5.22896 6.91724 5.03429C6.75419 4.84102 6.69215 4.56576 6.74406 4.25934C6.84351 3.63448 7.35215 3.19775 7.98035 3.19775C8.29352 3.19775 8.54823 3.30171 8.71596 3.4981C8.884 3.69651 8.95071 3.97332 8.90255 4.2785ZM15.207 2.13149H16.3156C16.4709 2.13149 16.5615 2.30559 16.4732 2.43293L12.7862 7.75441C12.7265 7.8406 12.6281 7.89189 12.5231 7.89189H11.4158C11.2599 7.89189 11.1689 7.71638 11.2592 7.58873L12.4072 5.96838L11.1862 2.38539C11.144 2.26085 11.2359 2.13149 11.3684 2.13149H12.4577C12.5993 2.13149 12.7241 2.22438 12.765 2.35983L13.413 4.52383L14.942 2.27192C15.0019 2.18401 15.1013 2.13149 15.207 2.13149Z" fill="#253B80"/>
<path fill-rule="evenodd" clip-rule="evenodd" d="M27.2269 6.17702L28.1723 0.162408C28.1868 0.0690461 28.2677 0.000311727 28.3617 0H29.426C29.5436 0 29.6338 0.105363 29.6153 0.221949L28.683 6.12823C28.6586 6.2841 28.5246 6.39866 28.3667 6.39866H27.4161C27.2986 6.39866 27.2083 6.2936 27.2269 6.17702ZM19.9863 0.000309243H17.6822C17.525 0.000309243 17.3909 0.114869 17.3663 0.270421L16.4346 6.17702C16.416 6.2936 16.5063 6.39866 16.624 6.39866H17.8062C17.9161 6.39866 18.0101 6.31854 18.0272 6.20944L18.2916 4.53515C18.3159 4.37913 18.4503 4.26473 18.6076 4.26473H19.3365C20.8543 4.26473 21.7299 3.53046 21.9589 2.07547C22.0622 1.43893 21.9629 0.938763 21.6649 0.588382C21.3377 0.203868 20.7573 0.000309243 19.9863 0.000309243ZM20.2521 2.15762C20.1265 2.98416 19.4948 2.98416 18.8838 2.98416H18.5365L18.7807 1.44049C18.7952 1.34728 18.8754 1.27855 18.97 1.27855H19.1293C19.545 1.27855 19.9378 1.27855 20.1405 1.51561C20.2615 1.65714 20.2982 1.86724 20.2521 2.15762ZM26.8719 2.13112H25.7695C25.6748 2.13112 25.5943 2.19985 25.5801 2.29322L25.5313 2.60167L25.4539 2.48992C25.2151 2.14328 24.6829 2.02747 24.1513 2.02747C22.9322 2.02747 21.8914 2.95065 21.6885 4.24572C21.5835 4.89161 21.7327 5.5093 22.0991 5.9401C22.436 6.33615 22.9164 6.50122 23.4887 6.50122C24.4709 6.50122 25.0155 5.86966 25.0155 5.86966L24.9664 6.17624C24.9479 6.29345 25.0381 6.3985 25.1564 6.3985H26.1497C26.307 6.3985 26.4411 6.28394 26.4657 6.12808L27.0623 2.35276C27.0805 2.23664 26.9902 2.13112 26.8719 2.13112ZM25.3343 4.27798C25.2285 4.90813 24.7276 5.33115 24.0896 5.33115C23.7699 5.33115 23.5133 5.22844 23.3488 5.03376C23.1858 4.84049 23.1245 4.56524 23.1758 4.25881C23.2757 3.63396 23.7838 3.19722 24.412 3.19722C24.7253 3.19722 24.9798 3.30118 25.1477 3.49757C25.3164 3.69599 25.3831 3.9728 25.3343 4.27798Z" fill="#179BD7"/>
</svg>
