<svg width="28" height="9" viewBox="0 0 28 9" fill="none" xmlns="http://www.w3.org/2000/svg">
<path d="M13.8101 0.159378L11.9464 8.87136H9.69278L11.5568 0.159378H13.8101ZM23.2919 5.78474L24.4785 2.51309L25.1612 5.78474H23.2919ZM25.8064 8.87136H27.891L26.0719 0.159378H24.1478C23.7155 0.159378 23.3507 0.410852 23.1883 0.798541L19.8072 8.87136H22.1738L22.6437 7.57042H25.5351L25.8064 8.87136ZM19.9246 6.02683C19.9343 3.72744 16.7448 3.60088 16.7669 2.57375C16.7735 2.26079 17.0716 1.9288 17.7226 1.84359C18.046 1.80141 18.9353 1.76914 19.945 2.23376L20.3404 0.386311C19.7981 0.189433 19.1002 0 18.2321 0C16.0047 0 14.4369 1.1843 14.4236 2.8801C14.4096 4.13416 15.5429 4.83399 16.3968 5.2509C17.2748 5.67802 17.5698 5.95156 17.566 6.33346C17.5602 6.9183 16.8656 7.17584 16.2176 7.18604C15.0843 7.20397 14.4267 6.88025 13.9025 6.63594L13.4941 8.54489C14.0205 8.78671 14.9925 8.99682 16.0009 9.00758C18.3681 9.00758 19.9169 7.83789 19.9246 6.02683ZM10.5898 0.159378L6.93842 8.87136H4.55576L2.75904 1.91859C2.64985 1.49037 2.555 1.33375 2.22328 1.15314C1.68201 0.85948 0.787235 0.583465 0 0.412506L0.053769 0.159378H3.88847C4.37708 0.159378 4.81688 0.48475 4.92773 1.04753L5.87682 6.08915L8.22198 0.159378H10.5898Z" fill="#1434CB"/>
</svg>
